<?xml version="1.0" standalone="no"?>
<!DOCTYPE svg PUBLIC "-//W3C//DTD SVG 20010904//EN"
 "http://www.w3.org/TR/2001/REC-SVG-20010904/DTD/svg10.dtd">
<svg version="1.0" xmlns="http://www.w3.org/2000/svg"
 width="710.000000pt" height="710.000000pt" viewBox="0 0 710.000000 710.000000"
 preserveAspectRatio="xMidYMid meet">

<g transform="translate(0.000000,710.000000) scale(0.100000,-0.100000)"
fill="#000000" stroke="none">
<path d="M0 3550 l0 -3550 3550 0 3550 0 0 3550 0 3550 -3550 0 -3550 0 0
-3550z m3280 2950 c0 -5 7 -10 15 -10 8 0 15 5 15 10 0 6 11 10 25 10 14 0 25
-5 25 -12 0 -9 3 -9 11 -1 10 10 46 9 105 -3 22 -4 38 -34 49 -94 4 -19 13
-42 20 -50 6 -8 15 -23 18 -32 11 -30 -22 -21 -36 10 -14 32 -46 61 -67 62
-10 0 -17 11 -18 32 -2 18 -5 34 -7 36 -10 10 -35 -9 -35 -26 0 -26 -35 -56
-56 -48 -11 4 -24 -1 -36 -14 -24 -25 -38 -26 -38 -1 0 14 5 18 20 14 25 -7
26 4 3 30 -17 18 -17 19 0 32 16 11 16 13 2 19 -18 7 -45 -5 -65 -28 -10 -13
-10 -19 0 -31 16 -20 5 -32 -14 -16 -18 16 -28 1 -31 -48 -1 -20 -6 -44 -10
-53 -4 -11 -3 -18 4 -18 6 0 8 -7 5 -15 -4 -10 3 -18 21 -25 15 -6 39 -19 53
-31 24 -18 27 -18 35 -3 11 19 -6 34 -40 34 -13 0 -23 5 -23 10 0 6 -7 10 -15
10 -9 0 -12 6 -8 16 4 11 13 13 37 8 17 -4 40 -7 51 -6 16 1 17 -1 5 -8 -11
-7 -4 -13 30 -28 25 -11 54 -29 64 -41 24 -27 40 -27 33 0 -14 54 64 97 106
58 26 -23 11 -39 -29 -31 -17 3 -24 0 -24 -11 0 -9 -6 -20 -13 -24 -8 -4 -26
-34 -41 -67 -22 -47 -25 -60 -14 -67 7 -5 16 -9 19 -9 12 0 37 -62 32 -81 -6
-22 -19 -25 -25 -7 -3 8 -10 3 -18 -11 -10 -20 -10 -26 1 -35 8 -6 20 -21 26
-33 12 -21 11 -22 -18 -16 -28 5 -30 4 -23 -21 5 -20 2 -26 -10 -26 -9 0 -15
3 -14 8 0 4 -2 15 -5 25 -4 9 -10 25 -14 35 -3 9 -5 20 -5 25 1 4 -5 7 -13 7
-10 0 -15 10 -15 29 0 20 -6 30 -20 34 -17 4 -20 0 -20 -33 0 -22 -4 -42 -10
-45 -5 -3 -10 -21 -10 -40 0 -28 3 -32 20 -28 21 6 29 -20 10 -32 -5 -3 -10
-16 -10 -28 0 -12 -9 -37 -20 -55 -11 -18 -20 -46 -20 -63 0 -16 -9 -50 -20
-74 -11 -25 -26 -68 -34 -97 -12 -46 -12 -55 1 -70 9 -10 20 -15 24 -12 11 7
11 1 0 -30 -7 -17 -7 -26 2 -29 7 -3 -3 -10 -20 -17 -18 -7 -33 -18 -33 -26 0
-17 17 -18 23 -1 4 7 6 6 6 -5 1 -21 -19 -28 -41 -14 -9 6 -21 6 -25 2 -4 -5
-3 -10 2 -13 29 -10 39 -23 29 -33 -7 -7 -16 -5 -29 10 -26 29 -45 25 -45 -9
0 -17 -5 -33 -12 -37 -8 -5 -5 -11 7 -20 16 -12 20 -11 32 6 20 28 45 25 78
-10 25 -26 27 -32 15 -40 -21 -14 -30 -12 -30 5 0 8 -7 15 -15 15 -8 0 -15 -9
-15 -20 0 -22 -26 -28 -32 -8 -6 17 -58 -74 -58 -100 0 -12 9 -26 21 -32 24
-13 12 -34 -24 -44 -25 -6 -58 -75 -50 -105 2 -10 0 -22 -6 -25 -6 -4 -11 -16
-11 -28 0 -17 -2 -18 -15 -8 -12 10 -15 9 -15 -7 0 -19 -54 -53 -85 -53 -9 0
-23 -5 -33 -11 -21 -13 -132 -3 -132 11 0 5 -13 7 -30 4 -32 -7 -35 -3 -21 25
6 10 6 23 0 32 -8 12 -10 12 -19 -1 -8 -12 -11 -13 -19 -1 -10 15 -3 53 9 46
4 -2 13 7 20 20 7 14 17 25 21 25 5 0 16 14 24 30 14 27 14 35 2 59 -11 22
-11 31 -2 44 7 10 18 17 24 17 7 0 10 4 6 9 -3 5 -1 12 5 16 5 3 10 14 9 23 0
11 -3 12 -6 5 -2 -7 -12 -13 -21 -13 -9 0 -26 -7 -36 -15 -22 -17 -36 -19 -36
-6 0 5 9 11 21 14 11 3 19 11 18 19 -2 7 12 45 30 83 24 52 31 78 26 102 -3
20 -1 33 6 35 7 2 13 17 15 33 2 16 8 31 14 33 5 2 10 10 10 18 0 8 5 14 10
14 6 0 10 9 10 20 0 24 21 70 32 70 4 0 8 18 8 41 0 28 6 46 19 57 12 11 29
57 47 127 15 61 33 115 41 121 11 9 11 13 2 16 -9 3 -7 13 9 35 12 17 22 36
22 43 0 6 4 9 8 6 4 -2 13 25 20 62 7 37 19 73 26 82 17 19 36 76 36 105 0 13
7 28 15 35 9 8 15 30 15 57 0 24 4 42 9 38 5 -3 15 12 21 32 7 21 18 43 25 48
6 6 15 27 19 48 6 33 10 37 36 37 20 0 31 6 35 20 6 20 35 28 35 10z m214
-369 c3 -5 -2 -15 -11 -22 -15 -12 -16 -12 -10 3 3 9 1 19 -6 22 -7 2 -5 5 5
5 9 1 19 -3 22 -8z m193 -223 c-3 -8 -6 -5 -6 6 -1 11 2 17 5 13 3 -3 4 -12 1
-19z m59 -54 c11 -35 11 -36 -17 -46 -16 -5 -29 -13 -29 -16 0 -4 16 -18 35
-31 29 -19 33 -26 23 -38 -8 -10 -26 -14 -54 -11 -33 2 -40 0 -36 -12 3 -8
-10 -1 -30 15 -44 36 -48 62 -12 75 14 6 23 14 20 19 -3 5 4 11 15 14 13 4 18
10 14 18 -8 12 30 48 50 49 6 0 15 -16 21 -36z m-306 -74 c0 -5 -4 -10 -9 -10
-6 0 -13 5 -16 10 -3 6 1 10 9 10 9 0 16 -4 16 -10z m354 -96 c5 -20 12 -25
26 -21 17 4 20 0 20 -34 0 -42 43 -161 66 -180 7 -6 11 -15 8 -20 -3 -5 2 -9
10 -9 9 0 16 -6 16 -14 0 -8 20 -54 45 -102 24 -48 42 -91 39 -96 -6 -9 23
-76 44 -101 9 -9 17 -31 19 -49 2 -17 9 -43 17 -57 51 -98 64 -131 69 -173 4
-28 2 -50 -4 -54 -6 -3 -42 -8 -81 -10 -59 -4 -73 -2 -84 13 -13 17 -15 17
-28 1 -18 -24 -75 -35 -87 -17 -7 11 -12 12 -29 2 -29 -19 -40 -16 -40 11 0
14 -11 37 -24 53 -38 46 -48 71 -37 92 8 15 5 23 -19 44 -19 17 -34 46 -46 86
-19 70 -23 72 -126 72 -40 -1 -86 0 -103 1 -16 1 -63 -1 -102 -4 -40 -3 -73
-3 -73 0 1 15 37 50 58 56 23 8 28 21 12 31 -5 3 -7 27 -5 53 2 26 4 50 5 54
1 22 35 39 67 33 25 -4 35 -2 39 10 4 9 2 21 -4 27 -19 19 7 48 34 37 18 -6
22 -5 17 7 -4 10 0 13 13 8 13 -4 15 -3 6 3 -10 8 -9 18 7 49 11 21 22 52 26
67 3 15 15 35 26 45 12 9 25 27 29 39 8 19 13 21 40 13 28 -8 34 -6 31 13 -1
5 2 6 7 3 5 -3 20 6 32 19 31 33 56 32 64 -1z m-516 -312 c2 -7 -3 -12 -12
-12 -9 0 -16 7 -16 16 0 17 22 14 28 -4z m37 -128 c-9 -49 -31 -72 -50 -53
-17 18 -8 72 10 65 8 -3 16 2 19 10 3 8 11 14 17 14 8 0 9 -12 4 -36z m-658
-232 c14 -9 12 -17 -35 -146 -16 -43 -32 -75 -35 -69 -8 13 3 53 16 53 6 0 7
17 4 45 -5 37 -4 45 9 45 8 0 12 5 9 10 -8 12 4 70 13 70 4 0 13 -4 19 -8z
m1478 -542 c-3 -5 -10 -10 -16 -10 -5 0 -9 5 -9 10 0 6 7 10 16 10 8 0 12 -4
9 -10z m-59 -25 c-9 -13 -16 -33 -16 -44 0 -11 -4 -22 -9 -25 -10 -7 -3 -44
10 -52 5 -3 6 2 3 10 -3 8 5 27 18 42 69 82 73 86 100 82 l27 -3 -38 -50 -39
-51 39 -64 c46 -79 48 -90 10 -90 -22 0 -31 7 -40 28 -35 83 -81 93 -81 16 0
-40 -2 -44 -24 -44 l-24 0 0 128 c-1 125 0 128 21 128 12 0 25 -5 29 -10 5 -7
8 -4 8 7 0 9 5 17 11 17 7 0 5 -10 -5 -25z m-1436 5 c0 -5 -7 -10 -15 -10 -8
0 -15 5 -15 10 0 6 7 10 15 10 8 0 15 -4 15 -10z m274 -9 c7 -6 16 -7 21 -3 4
4 5 -20 2 -52 -3 -33 -1 -68 4 -78 9 -16 7 -20 -10 -25 -12 -3 -21 -12 -21
-19 0 -8 -4 -14 -10 -14 -5 0 -10 -7 -10 -16 0 -11 6 -14 21 -9 15 5 19 4 15
-4 -9 -15 -53 -14 -58 1 -3 7 -10 8 -17 4 -11 -7 -11 -10 0 -17 9 -6 -5 -9
-38 -9 l-53 0 0 128 0 127 71 -2 c39 -1 76 -7 83 -12z m126 -36 l0 -55 40 0
40 0 0 55 c0 51 2 55 24 55 27 0 33 -11 30 -60 -1 -19 -3 -68 -3 -107 -1 -71
-2 -73 -26 -73 -22 0 -25 4 -25 40 l0 40 -40 0 -40 0 0 -49 c0 -44 -2 -49 -25
-53 l-25 -5 0 133 0 134 25 0 c24 0 25 -3 25 -55z m240 -80 l0 -135 -25 0
c-26 0 -29 9 -27 90 0 19 1 68 1 108 1 70 2 72 26 72 l25 0 0 -135z m206 120
c31 -13 34 -17 24 -35 -9 -17 -17 -20 -48 -14 -20 3 -41 7 -47 8 -5 0 -11 -11
-13 -26 -3 -24 0 -28 21 -28 20 0 84 -17 95 -25 9 -7 -22 -100 -36 -111 -23
-18 -122 -17 -145 1 -27 20 -14 60 16 50 51 -16 83 -17 96 -1 12 14 11 19 -3
34 -9 10 -16 23 -16 29 0 16 -48 12 -55 -5 -8 -23 -34 15 -35 51 -1 74 64 106
146 72z m124 -40 l0 -55 45 0 45 0 0 55 c0 51 2 55 24 55 23 0 23 0 25 -135
l2 -135 -26 0 c-31 0 -34 19 -2 21 l22 2 -22 4 c-19 4 -23 11 -23 44 0 39 0
39 -39 39 -43 0 -51 -10 -51 -65 0 -24 -5 -34 -19 -38 -11 -3 -22 -2 -25 1 -3
3 -6 63 -6 134 l0 128 25 0 c24 0 25 -3 25 -55z m358 30 c2 -23 -1 -24 -60
-27 -60 -3 -62 -4 -63 -30 -2 -27 0 -28 52 -28 53 0 53 0 53 -31 0 -31 0 -31
-49 -27 -44 3 -50 1 -54 -19 -3 -17 2 -22 26 -27 16 -3 45 -6 63 -6 27 0 34
-4 34 -20 0 -18 -7 -20 -85 -20 l-85 0 -1 33 c-3 95 2 172 11 175 13 5 13 32
0 32 -5 0 -10 5 -10 10 0 6 34 10 83 10 81 0 83 -1 85 -25z m-1368 -27 c0 -8
3 -9 8 -3 16 22 28 13 24 -17 -3 -19 -7 -25 -12 -18 -5 7 -11 -9 -15 -39 -4
-28 -11 -51 -16 -51 -5 0 -9 -9 -9 -21 0 -31 -18 -59 -39 -59 -16 0 -18 6 -13
48 3 26 8 49 11 52 3 3 15 31 25 63 18 52 36 75 36 45z m89 -85 c10 -21 26
-54 34 -75 15 -36 15 -36 -10 -41 -20 -4 -27 1 -35 24 -7 21 -17 29 -34 29
-30 0 -30 14 0 47 13 14 22 32 19 39 -11 29 8 12 26 -23z m481 -123 c0 -6 -11
-10 -25 -10 -14 0 -25 4 -25 8 0 4 11 9 25 10 14 1 25 -3 25 -8z m3360 -499
c35 -17 71 -54 160 -166 63 -79 120 -144 125 -145 6 0 23 43 40 96 l30 96 41
-171 42 -171 -33 -103 c-18 -56 -36 -101 -39 -100 -4 1 -54 62 -112 135 -58
73 -113 142 -122 153 -9 11 -46 59 -82 105 -35 47 -102 131 -147 186 -45 56
-80 104 -77 107 14 14 132 -1 174 -22z m-1309 -7 c82 -25 168 -85 225 -159 77
-100 91 -231 37 -339 -28 -55 -102 -123 -166 -152 -60 -28 -67 -29 -254 -32
-172 -3 -193 -2 -193 13 0 33 29 83 65 111 34 26 47 29 150 34 97 6 118 10
158 33 63 37 90 84 89 154 0 67 -33 121 -102 167 -36 25 -56 30 -122 34 -47 3
-83 0 -91 -6 -10 -8 -10 -34 -4 -115 8 -88 7 -109 -7 -138 -19 -39 -69 -75
-118 -84 l-34 -6 -16 207 c-9 115 -15 211 -12 215 2 4 26 19 52 34 96 54 222
65 343 29z m-746 -159 c44 -69 107 -168 140 -219 33 -52 71 -112 85 -135 14
-23 44 -71 68 -107 l42 -66 -83 3 c-113 5 -129 19 -246 208 -52 83 -96 151
-98 151 -7 0 -99 -201 -94 -205 2 -3 35 -5 73 -5 64 0 68 -1 68 -22 0 -35 -34
-82 -76 -109 -36 -22 -51 -24 -196 -28 -87 -1 -158 0 -158 4 0 6 15 35 175
335 43 80 103 193 134 253 65 125 46 132 166 -58z m-1780 140 c57 -22 85 -67
85 -136 0 -66 -31 -543 -36 -548 -6 -7 -94 28 -113 46 -43 40 -53 85 -42 196
6 56 15 167 21 247 18 233 13 222 85 195z m-1142 -6 c21 -6 56 -28 77 -49 48
-48 60 -106 37 -176 l-15 -47 38 -36 c37 -35 60 -89 60 -141 0 -41 -44 -123
-87 -161 -71 -64 -130 -79 -309 -79 -173 0 -213 11 -246 68 -23 39 -23 49 9
223 l27 147 155 1 c174 2 201 10 201 60 0 16 -6 33 -12 39 -7 5 -56 12 -109
14 -82 3 -102 8 -133 28 -21 15 -41 39 -47 58 -20 61 -16 62 158 62 87 0 175
-5 196 -11z m-731 -184 c28 -77 76 -214 108 -305 32 -91 61 -173 65 -182 6
-16 0 -18 -59 -18 -46 0 -78 6 -105 19 -40 21 -45 31 -121 264 -12 37 -25 67
-30 67 -10 0 -140 -176 -140 -190 0 -6 27 -10 65 -10 81 0 83 -11 18 -79 -32
-32 -63 -53 -91 -62 -23 -7 -44 -10 -47 -7 -3 2 4 40 14 84 11 43 29 120 41
169 52 225 50 221 123 313 38 48 73 96 79 107 13 23 6 37 80 -170z m6103
-2904 c61 -2 65 -19 63 -250 -1 -140 -3 -175 -8 -121 -7 77 -11 67 -14 -29 -1
-49 -4 -56 -24 -60 -13 -4 -429 -5 -925 -3 l-902 2 -11 33 c-14 45 -9 394 6
412 7 8 30 15 53 17 34 3 1622 2 1762 -1z"/>
<path d="M3322 6439 c2 -7 10 -15 17 -17 8 -3 12 1 9 9 -2 7 -10 15 -17 17 -8
3 -12 -1 -9 -9z"/>
<path d="M3230 6170 c12 -22 46 -43 74 -45 11 -1 22 -7 24 -13 6 -20 22 -13
22 8 0 11 -4 20 -10 20 -5 0 -10 9 -10 20 0 22 -10 26 -26 10 -7 -7 -20 -6
-40 5 -39 20 -47 19 -34 -5z"/>
<path d="M3276 6084 c-5 -12 -2 -15 10 -10 8 3 18 6 20 6 2 0 4 5 4 10 0 16
-27 11 -34 -6z"/>
<path d="M3375 6090 c-3 -5 -1 -10 4 -10 6 0 11 5 11 10 0 6 -2 10 -4 10 -3 0
-8 -4 -11 -10z"/>
<path d="M3165 6070 c3 -5 8 -10 11 -10 2 0 4 5 4 10 0 6 -5 10 -11 10 -5 0
-7 -4 -4 -10z"/>
<path d="M3158 6033 c7 -3 16 -2 19 1 4 3 -2 6 -13 5 -11 0 -14 -3 -6 -6z"/>
<path d="M3090 5308 c0 -9 5 -20 10 -23 13 -8 13 5 0 25 -8 13 -10 13 -10 -2z"/>
<path d="M2776 5087 c-10 -8 -17 -19 -15 -26 3 -9 9 -8 23 2 10 8 17 19 15 26
-3 9 -9 8 -23 -2z"/>
<path d="M3440 5312 c0 -27 10 -52 21 -52 15 0 10 47 -6 60 -12 10 -15 9 -15
-8z"/>
<path d="M3397 5283 c-13 -12 -7 -22 13 -20 11 1 20 7 20 14 0 14 -22 18 -33
6z"/>
<path d="M3410 5230 c0 -5 5 -10 10 -10 6 0 10 5 10 10 0 6 -4 10 -10 10 -5 0
-10 -4 -10 -10z"/>
<path d="M3450 5185 c0 -9 9 -15 21 -15 18 0 19 2 9 15 -7 8 -16 15 -21 15 -5
0 -9 -7 -9 -15z"/>
<path d="M4120 4390 c0 -5 4 -10 9 -10 6 0 13 5 16 10 3 6 -1 10 -9 10 -9 0
-16 -4 -16 -10z"/>
<path d="M4151 4234 c0 -11 3 -14 6 -6 3 7 2 16 -1 19 -3 4 -6 -2 -5 -13z"/>
<path d="M2804 4394 c3 -9 6 -22 6 -30 0 -23 57 -18 70 6 16 29 4 40 -42 40
-32 0 -39 -3 -34 -16z"/>
<path d="M2810 4284 c0 -30 3 -34 26 -34 32 0 64 17 64 34 0 7 -20 17 -45 23
l-45 10 0 -33z"/>
<path d="M3410 4439 c0 -5 5 -7 10 -4 6 3 10 8 10 11 0 2 -4 4 -10 4 -5 0 -10
-5 -10 -11z"/>
<path d="M1286 3230 c-3 -16 -9 -43 -12 -60 l-6 -30 125 0 c118 0 125 1 151
25 30 28 33 55 8 78 -15 14 -41 17 -139 17 l-121 0 -6 -30z"/>
<path d="M5123 564 c9 -9 397 -11 397 -2 0 4 -91 8 -202 8 -111 0 -199 -3
-195 -6z"/>
<path d="M5543 563 c9 -2 25 -2 35 0 9 3 1 5 -18 5 -19 0 -27 -2 -17 -5z"/>
<path d="M5820 560 c124 -4 250 -10 280 -13 46 -4 49 -3 15 3 -26 6 -3 7 65 4
58 -2 152 -6 210 -8 l105 -3 -90 6 c-79 6 -70 7 75 8 91 1 157 -1 148 -5 -10
-4 47 -7 126 -7 79 0 139 3 133 7 -6 4 9 8 33 10 25 2 -263 4 -640 4 -470 1
-614 -1 -460 -6z"/>
<path d="M5113 480 c0 -41 2 -58 4 -37 2 20 2 54 0 75 -2 20 -4 3 -4 -38z"/>
<path d="M5157 530 c8 -31 20 -33 25 -5 4 19 1 25 -12 25 -13 0 -17 -6 -13
-20z"/>
<path d="M6568 543 c7 -3 16 -2 19 1 4 3 -2 6 -13 5 -11 0 -14 -3 -6 -6z"/>
<path d="M6952 544 c15 -5 18 -22 21 -127 l3 -122 0 125 c-1 117 -2 125 -21
127 -15 1 -16 1 -3 -3z"/>
<path d="M5204 531 c-7 -8 -4 -361 4 -361 188 -3 344 -1 349 4 3 3 16 6 27 7
l21 0 -21 9 c-17 7 -20 17 -21 61 l-1 54 8 -45 7 -45 1 47 c2 38 5 46 17 42 8
-4 15 -1 15 5 0 6 -5 11 -11 11 -6 0 -8 7 -5 16 5 14 4 15 -9 4 -8 -7 -12 -16
-9 -21 3 -5 0 -9 -5 -9 -16 0 -13 29 3 46 21 20 36 17 36 -7 0 -11 4 -17 10
-14 6 4 4 18 -6 37 -11 21 -13 33 -5 41 13 13 31 -31 31 -79 0 -23 5 -34 14
-34 9 0 13 8 10 23 l-5 22 17 -22 c20 -27 51 -30 57 -5 4 16 5 16 6 0 1 -14
10 -18 35 -18 28 0 35 4 39 23 l4 22 2 -22 c1 -28 31 -31 31 -3 0 11 5 20 10
20 6 0 10 -9 10 -20 0 -13 7 -20 19 -20 14 0 18 5 14 19 -3 10 0 22 6 25 7 5
11 -3 11 -18 0 -27 15 -35 23 -13 4 10 6 10 6 0 1 -8 16 -13 41 -13 45 0 54
16 13 23 -26 4 -25 4 5 6 19 0 31 5 27 11 -3 6 -1 10 5 10 6 0 9 -10 6 -23 -3
-20 0 -22 47 -25 33 -2 53 1 58 10 7 10 9 10 9 1 0 -7 7 -13 15 -13 8 0 15 9
15 20 0 11 5 20 10 20 6 0 10 -9 10 -20 0 -25 27 -27 33 -2 4 15 5 15 6 0 1
-14 13 -16 81 -16 52 0 80 3 80 11 0 8 4 7 12 -1 7 -7 27 -12 45 -12 31 0 33
2 33 34 0 23 -7 38 -22 48 -20 14 -24 13 -46 -11 l-25 -26 7 27 c3 15 2 30 -4
33 -13 8 -77 -13 -86 -27 -4 -6 -3 -8 3 -5 6 4 7 -7 4 -26 l-5 -32 -5 29 c-5
25 -11 30 -39 32 -29 2 -33 0 -29 -17 3 -10 2 -19 -1 -19 -11 0 -32 52 -31 74
1 15 4 12 9 -9 l8 -30 1 30 c0 17 -4 37 -9 45 -8 13 -10 12 -10 -2 0 -11 -8
-18 -20 -18 -11 0 -20 -4 -20 -10 0 -5 -4 -10 -8 -10 -5 0 -9 7 -9 15 0 8 9
15 19 15 10 0 18 5 18 10 0 13 -6 13 -31 -1 -11 -5 -17 -14 -14 -20 7 -11 -3
-11 -30 1 -16 7 -17 9 -3 9 9 1 19 5 22 9 8 13 -33 7 -46 -6 -9 -9 -3 -15 25
-27 42 -17 51 -30 10 -14 -22 8 -30 6 -50 -13 -16 -15 -20 -24 -12 -29 14 -8
5 -39 -12 -39 -9 0 -8 4 0 14 10 12 8 16 -10 21 -12 4 -17 10 -11 14 5 3 -12
6 -38 6 -26 0 -46 -3 -44 -7 2 -4 0 -9 -6 -13 -5 -3 -10 0 -10 8 0 16 -110 18
-122 2 -5 -7 -8 -6 -8 1 0 5 -15 10 -32 10 -25 -1 -33 -5 -32 -19 1 -9 -3 -17
-8 -17 -6 0 -8 12 -5 30 7 32 -2 43 -27 34 -11 -4 -15 -14 -11 -28 5 -21 5
-20 -11 2 -9 12 -23 22 -30 22 -12 0 -12 4 -2 20 15 24 33 27 24 4 -4 -10 -1
-14 6 -12 16 6 19 20 8 38 -8 12 -13 11 -33 -8 -23 -22 -57 -22 -57 0 0 6 7 8
15 5 8 -4 17 -2 20 3 4 6 -6 10 -20 10 -24 0 -26 3 -21 33 5 29 5 28 -9 -8 -9
-22 -15 -57 -13 -77 1 -20 -1 -41 -6 -45 -4 -4 -7 26 -6 67 1 41 2 82 1 90 -1
13 -28 15 -177 15 -97 0 -178 -2 -180 -4z m383 -133 c-2 -13 -4 -3 -4 22 0 25
2 35 4 23 2 -13 2 -33 0 -45z m-113 37 c-7 -18 -31 -20 -37 -2 -3 9 -7 9 -19
0 -8 -7 -18 -10 -21 -6 -15 14 -5 19 38 22 37 1 44 -1 39 -14z m735 -42 c0
-25 -1 -26 -9 -8 -12 27 -12 35 0 35 6 0 10 -12 9 -27z m-744 3 c8 -7 12 -16
9 -19 -9 -9 -35 4 -28 14 8 14 -4 11 -31 -7 -27 -18 -33 -12 -12 11 16 18 45
19 62 1z m-163 -81 c3 6 9 25 13 43 4 18 9 31 12 29 9 -10 -18 -88 -30 -84 -6
2 -15 19 -20 38 l-10 34 -11 -32 c-6 -17 -15 -35 -20 -40 -13 -12 4 38 22 67
l16 25 11 -45 c6 -25 14 -40 17 -35z m1068 65 c0 -5 -4 -10 -10 -10 -5 0 -10
5 -10 10 0 6 5 10 10 10 6 0 10 -4 10 -10z m-210 -14 c0 -9 -8 -12 -27 -8
l-28 6 25 7 c14 4 26 7 28 8 1 1 2 -5 2 -13z m-791 -60 c-9 -8 -10 -7 -5 7 3
10 7 26 7 35 1 9 4 6 6 -7 3 -13 -1 -28 -8 -35z m101 50 c0 -3 -4 -8 -10 -11
-5 -3 -10 -1 -10 4 0 6 5 11 10 11 6 0 10 -2 10 -4z m-118 -31 c-2 -14 -9 -25
-14 -25 -5 0 -7 3 -5 8 2 4 7 15 10 25 9 25 15 21 9 -8z m1028 15 c0 -5 -5
-10 -11 -10 -5 0 -7 5 -4 10 3 6 8 10 11 10 2 0 4 -4 4 -10z m-265 -10 c3 -5
2 -10 -4 -10 -5 0 -13 5 -16 10 -3 6 -2 10 4 10 5 0 13 -4 16 -10z m-655 -20
c0 -5 -4 -10 -10 -10 -5 0 -10 5 -10 10 0 6 5 10 10 10 6 0 10 -4 10 -10z m47
-6 c-3 -3 -12 -4 -19 -1 -8 3 -5 6 6 6 11 1 17 -2 13 -5z"/>
<path d="M5570 529 c0 -5 5 -7 10 -4 6 3 10 8 10 11 0 2 -4 4 -10 4 -5 0 -10
-5 -10 -11z"/>
<path d="M5134 345 c0 -71 1 -99 3 -62 2 37 2 96 0 130 -2 34 -3 4 -3 -68z"/>
<path d="M5170 340 c0 -81 -4 -120 -11 -120 -6 0 -8 -7 -5 -16 17 -45 18 -64
3 -64 -10 0 -19 13 -23 36 -4 21 -10 32 -15 27 -5 -5 -6 -24 -3 -41 l7 -32
680 0 c374 0 678 2 676 5 -3 2 -210 5 -460 5 -398 1 -452 3 -435 16 17 12 17
14 3 14 -9 0 -20 -6 -24 -13 -6 -9 -44 -11 -158 -7 -82 3 -158 2 -169 -3 -13
-6 -21 -5 -27 4 -7 12 -9 11 -9 -1 0 -11 -2 -12 -12 -1 -10 9 -12 51 -10 162
2 82 1 149 -2 149 -3 0 -6 -54 -6 -120z"/>
<path d="M5710 450 c0 -5 7 -7 15 -4 8 4 15 8 15 10 0 2 -7 4 -15 4 -8 0 -15
-4 -15 -10z"/>
<path d="M6322 451 c4 -13 18 -16 19 -4 0 4 -5 9 -11 12 -7 2 -11 -2 -8 -8z"/>
<path d="M6385 449 c-19 -7 -19 -8 2 -8 12 -1 24 -7 26 -13 3 -8 6 -7 6 4 1
22 -9 27 -34 17z"/>
<path d="M6433 447 c4 -10 7 -23 7 -29 0 -6 6 -6 15 2 12 10 15 9 16 -6 0 -11
3 -14 5 -8 3 6 0 22 -5 35 -5 13 -10 18 -10 10 -1 -11 -4 -11 -18 0 -15 12
-16 12 -10 -4z"/>
<path d="M6645 449 c-10 -15 3 -25 16 -12 7 7 7 13 1 17 -6 3 -14 1 -17 -5z"/>
<path d="M6680 444 c0 -9 -9 -18 -20 -21 -22 -6 -28 -23 -7 -23 19 0 34 13 41
38 5 13 3 22 -3 22 -6 0 -11 -7 -11 -16z"/>
<path d="M6711 438 c0 -13 3 -17 6 -10 8 19 20 14 27 -12 8 -31 32 -36 76 -17
44 20 63 38 55 51 -9 15 -23 12 -21 -6 0 -8 -13 -21 -31 -29 -19 -8 -33 -10
-33 -4 0 5 11 14 25 19 14 5 25 15 25 22 0 9 -3 10 -8 2 -12 -19 -36 -21 -69
-7 -44 18 -53 17 -52 -9z m66 -13 c8 -22 -6 -33 -17 -15 -13 20 -12 30 0 30 6
0 13 -7 17 -15z"/>
<path d="M5741 413 c7 -10 15 -20 16 -22 2 -2 3 5 3 17 0 14 -6 22 -16 22 -14
0 -15 -3 -3 -17z"/>
<path d="M6354 421 c3 -5 15 -7 26 -4 28 7 25 13 -6 13 -14 0 -23 -4 -20 -9z"/>
<path d="M6690 395 c-7 -8 -10 -15 -6 -15 3 0 -3 -15 -14 -32 -26 -43 -25 -48
6 -48 14 0 23 4 19 10 -3 6 1 10 9 10 8 0 18 -4 21 -10 3 -5 27 -10 53 -10 27
0 42 4 35 8 -10 6 -10 12 2 28 14 18 15 18 12 -6 -2 -20 3 -26 25 -28 24 -3
26 0 25 32 -1 20 -5 36 -10 36 -4 0 -6 4 -2 9 3 5 1 12 -4 15 -12 8 -42 -4
-36 -14 3 -4 -9 -7 -25 -6 -28 2 -30 0 -31 -33 0 -32 -1 -33 -9 -13 -5 12 -6
30 -3 39 4 11 3 14 -5 9 -7 -4 -12 -3 -12 3 0 6 -9 15 -19 20 -14 8 -22 7 -31
-4z"/>
<path d="M5105 305 c-4 -42 -5 -79 -2 -81 2 -3 8 29 12 71 4 42 5 79 2 81 -2
3 -8 -29 -12 -71z"/>
<path d="M6517 374 c-10 -10 -9 -46 3 -64 8 -12 13 -13 30 -2 12 7 20 8 20 2
0 -5 9 -10 20 -10 11 0 20 7 20 15 0 8 5 15 11 15 6 0 9 -7 5 -15 -3 -8 -2
-15 3 -15 5 0 11 8 15 18 3 9 10 27 15 38 9 20 7 21 -30 20 -27 -1 -39 -6 -39
-15 0 -11 -4 -9 -14 4 -11 16 -17 17 -29 7 -10 -9 -16 -10 -19 -2 -2 6 -7 8
-11 4z m129 -16 c5 -7 3 -8 -6 -3 -10 6 -12 4 -7 -8 4 -11 2 -14 -9 -10 -17 6
-18 20 -1 26 6 3 13 6 14 6 1 1 5 -4 9 -11z"/>
<path d="M6930 340 c0 -29 4 -40 15 -40 11 0 15 11 15 40 0 29 -4 40 -15 40
-11 0 -15 -11 -15 -40z"/>
<path d="M6125 269 c-22 -3 -5 -4 38 -2 52 4 77 2 77 -6 0 -13 85 -14 115 -1
11 5 18 9 15 10 -17 6 -212 5 -245 -1z"/>
<path d="M5758 263 c45 -2 119 -2 165 0 45 1 8 3 -83 3 -91 0 -128 -2 -82 -3z"/>
<path d="M6800 255 c0 -11 11 -15 40 -15 29 0 40 4 40 15 0 11 -11 15 -40 15
-29 0 -40 -4 -40 -15z"/>
<path d="M6400 251 c0 -5 -19 -11 -41 -15 -68 -11 -36 -18 45 -11 55 5 76 11
76 21 0 10 -13 14 -40 14 -22 0 -40 -4 -40 -9z"/>
<path d="M6178 233 c12 -2 32 -2 45 0 12 2 2 4 -23 4 -25 0 -35 -2 -22 -4z"/>
<path d="M6658 133 c57 -2 147 -2 200 0 53 1 7 3 -103 3 -110 0 -154 -2 -97
-3z"/>
</g>
</svg>
